<svg width="56" height="56" viewBox="0 0 56 56" fill="none" xmlns="http://www.w3.org/2000/svg">
<rect width="56" height="56" rx="16" fill="#CAD8FF"/>
<path fill-rule="evenodd" clip-rule="evenodd" d="M18.6853 25.1147C18.6731 25.1869 18.6669 25.2601 18.6667 25.3333H17.3333C16.9797 25.3333 16.6406 25.4738 16.3905 25.7239C16.1405 25.9739 16 26.313 16 26.6667C16 27.0203 16.1405 27.3594 16.3905 27.6095C16.6406 27.8595 16.9797 28 17.3333 28H38.6667C39.0203 28 39.3594 27.8595 39.6095 27.6095C39.8595 27.3594 40 27.0203 40 26.6667C40 26.313 39.8595 25.9739 39.6095 25.7239C39.3594 25.4738 39.0203 25.3333 38.6667 25.3333H37.3333C37.3331 25.2601 37.3269 25.1869 37.3147 25.1147L36.3533 19.3413C36.1974 18.4074 35.7152 17.559 34.9925 16.9472C34.2699 16.3353 33.3536 15.9997 32.4067 16H23.5933C22.6462 15.9998 21.7298 16.3356 21.0071 16.9477C20.2844 17.5598 19.8023 18.4085 19.6467 19.3427L18.6853 25.1147ZM21.3333 29.3333C22.5159 29.333 23.6651 29.7258 24.6001 30.4499C25.5352 31.174 26.203 32.1883 26.4987 33.3333H29.5013C29.829 32.0793 30.6018 30.9875 31.6756 30.2616C32.7493 29.5357 34.0505 29.2255 35.3363 29.3888C36.622 29.552 37.8044 30.1777 38.6626 31.149C39.5208 32.1202 39.9962 33.3706 40 34.6667C40.0013 35.9657 39.5284 37.2205 38.6702 38.1956C37.8119 39.1708 36.6273 39.7991 35.3386 39.9628C34.0499 40.1264 32.7458 39.8141 31.6711 39.0845C30.5963 38.3549 29.8248 37.2581 29.5013 36H26.4987C26.171 37.254 25.3982 38.3459 24.3244 39.0717C23.2507 39.7976 21.9495 40.1079 20.6637 39.9446C19.3779 39.7813 18.1956 39.1556 17.3374 38.1844C16.4792 37.2131 16.0038 35.9627 16 34.6667C16 33.2522 16.5619 31.8956 17.5621 30.8954C18.5623 29.8952 19.9188 29.3333 21.3333 29.3333Z" fill="#0067FF"/>
</svg>
