<svg width="56" height="56" viewBox="0 0 56 56" fill="none" xmlns="http://www.w3.org/2000/svg">
<rect width="56" height="56" rx="16" fill="#CAD8FF"/>
<mask id="mask0_1_5519" style="mask-type:alpha" maskUnits="userSpaceOnUse" x="12" y="12" width="32" height="32">
<rect x="12" y="12" width="32" height="32" fill="url(#paint0_linear_1_5519)"/>
</mask>
<g mask="url(#mask0_1_5519)">
<path d="M21.3334 32C22.4445 32 23.3889 31.6111 24.1667 30.8333C24.9445 30.0556 25.3334 29.1111 25.3334 28C25.3334 26.8889 24.9445 25.9444 24.1667 25.1667C23.3889 24.3889 22.4445 24 21.3334 24C20.2223 24 19.2778 24.3889 18.5 25.1667C17.7223 25.9444 17.3334 26.8889 17.3334 28C17.3334 29.1111 17.7223 30.0556 18.5 30.8333C19.2778 31.6111 20.2223 32 21.3334 32ZM21.3334 36C19.1112 36 17.2223 35.2222 15.6667 33.6667C14.1112 32.1111 13.3334 30.2222 13.3334 28C13.3334 25.7778 14.1112 23.8889 15.6667 22.3333C17.2223 20.7778 19.1112 20 21.3334 20C23.1334 20 24.7056 20.5111 26.05 21.5333C27.3945 22.5556 28.3334 23.8222 28.8667 25.3333H40.0334L42.6667 27.9667L38 33.3L34.6667 30.6667L32 33.3333L29.3334 30.6667H28.8667C28.3112 32.2667 27.3445 33.5556 25.9667 34.5333C24.5889 35.5111 23.0445 36 21.3334 36Z" fill="#0067FF"/>
</g>
<defs>
<linearGradient id="paint0_linear_1_5519" x1="28" y1="12" x2="28" y2="44" gradientUnits="userSpaceOnUse">
<stop stop-color="#D9D9D9"/>
<stop offset="1" stop-color="#9E58FF"/>
</linearGradient>
</defs>
</svg>
