<svg width="56" height="56" viewBox="0 0 56 56" fill="none" xmlns="http://www.w3.org/2000/svg">
<rect width="56" height="56" rx="16" fill="#CAD8FF"/>
<mask id="mask0_1_5539" style="mask-type:alpha" maskUnits="userSpaceOnUse" x="12" y="12" width="32" height="32">
<rect x="12" y="12" width="32" height="32" fill="url(#paint0_linear_1_5539)"/>
</mask>
<g mask="url(#mask0_1_5539)">
<path d="M20.6667 38.6667C18.6444 38.6667 16.9167 37.9667 15.4833 36.5667C14.05 35.1667 13.3333 33.4556 13.3333 31.4334C13.3333 29.7 13.8556 28.1556 14.9 26.8C15.9444 25.4445 17.3111 24.5778 19 24.2C19.5111 22.4 20.4611 20.8889 21.85 19.6667C23.2389 18.4445 24.8444 17.7 26.6667 17.4333V28.2L24.5333 26.1333L22.6667 28L28 33.3334L33.3333 28L31.4667 26.1333L29.3333 28.2V17.4333C31.6222 17.7445 33.5278 18.7722 35.05 20.5167C36.5722 22.2611 37.3333 24.3111 37.3333 26.6667C38.8667 26.8445 40.1389 27.5056 41.15 28.65C42.1611 29.7945 42.6667 31.1334 42.6667 32.6667C42.6667 34.3334 42.0833 35.75 40.9167 36.9167C39.75 38.0834 38.3333 38.6667 36.6667 38.6667H20.6667Z" fill="#0067FF"/>
</g>
<defs>
<linearGradient id="paint0_linear_1_5539" x1="28" y1="12" x2="28" y2="44" gradientUnits="userSpaceOnUse">
<stop stop-color="#D9D9D9"/>
<stop offset="1" stop-color="#9E58FF"/>
</linearGradient>
</defs>
</svg>
