<svg width="65" height="64" fill="none" xmlns="http://www.w3.org/2000/svg"><rect x=".5" width="64" height="64" rx="16" fill="#0067FF"/><g clip-path="url(#a)" fill="#fff"><path d="M32.5 41a9 9 0 1 1 0-17.999A9 9 0 0 1 32.5 41Zm0-23c-14 0-20 14-20 14s6 14 20 14 20-14 20-14-6-14-20-14Z"/><path d="M32.5 37a5 5 0 1 0 0-10 5 5 0 0 0 0 10Z"/></g><rect x="6.5" y="6" width="52" height="52" rx="10" stroke="#fff" stroke-opacity=".32" stroke-width="4"/><defs><clipPath id="a"><path fill="#fff" transform="translate(12.5 12)" d="M0 0h40v40H0z"/></clipPath></defs></svg>